<svg width="1254px" height="1254px" viewBox="0 -109.5 1254 1254" fill="none" xmlns="http://www.w3.org/2000/svg">
<g filter="url(#filter0_f_3_485)">
<path d="M908.044 764.881C952.704 753.564 1034.56 720.83 1064.6 695.225C1099.11 668.563 1031.58 633.947 1023.61 628.83C1015.65 623.714 622.595 406.176 553.863 372.153C485.131 338.13 260.143 393.224 205.029 420.651C160.104 443.008 190.3 461.616 195.929 466.627C201.559 471.638 528.046 673.412 645.856 735.814C735.073 783.071 820.381 787.095 908.044 764.881Z" fill="black" fill-opacity="0.2"/>
</g>
<path fill-rule="evenodd" clip-rule="evenodd" d="M599.553 541.177L644.961 522.554L644.968 522.572C645.247 522.452 645.529 522.336 645.813 522.224C672.843 511.528 709.423 540.171 727.518 586.2C745.613 632.23 738.37 678.216 711.34 688.912C711.016 689.04 710.691 689.163 710.365 689.279L666.47 707.309L645.08 654.205C639.154 645.597 633.885 635.745 629.635 624.935C625.715 614.961 622.983 604.99 621.385 595.379L599.553 541.177Z" fill="black"/>
<ellipse rx="52.6562" ry="89.4451" transform="matrix(-0.929451 0.367801 0.366019 0.93106 633.617 624.083)" fill="black"/>
<g filter="url(#filter1_i_3_485)">
<ellipse rx="39.494" ry="67.0869" transform="matrix(-0.929451 0.367801 0.366019 0.93106 632.095 624.063)" fill="url(#paint0_linear_3_485)"/>
</g>
<g filter="url(#filter2_di_3_485)">
<path fill-rule="evenodd" clip-rule="evenodd" d="M634.8 575.736C640.691 579.359 646.443 584.832 651.516 591.73L639.114 611.191C637.364 608.943 635.427 607.124 633.442 605.843L634.8 575.736ZM631.741 643.573C634.574 645.118 637.455 645.544 639.989 644.541C640.26 644.433 640.523 644.311 640.778 644.175L656.206 674.009C655.041 674.789 653.798 675.445 652.481 675.966C645.708 678.647 637.974 677.367 630.414 673.015L631.741 643.573ZM629.201 672.29L630.529 642.841C628.341 641.394 626.216 639.295 624.342 636.69L612.184 655.769C617.322 662.9 623.187 668.558 629.201 672.29ZM632.229 605.131L633.587 575.017C626.074 570.734 618.397 569.489 611.669 572.151C609.79 572.895 608.065 573.911 606.497 575.171L622.143 605.427C622.751 604.938 623.421 604.543 624.151 604.254C626.635 603.271 629.451 603.66 632.229 605.131ZM601.57 636.13C604.268 642.994 607.627 649.237 611.407 654.672L623.575 635.576C622.301 633.637 621.165 631.455 620.232 629.082C619.986 628.455 619.759 627.828 619.551 627.203L599.9 631.546C600.412 633.072 600.968 634.601 601.57 636.13ZM639.909 612.26L652.3 592.816C656.26 598.396 659.777 604.856 662.58 611.987C663.117 613.354 663.619 614.721 664.085 616.086L644.2 620.48C644.106 620.224 644.008 619.969 643.908 619.713C642.818 616.94 641.45 614.428 639.909 612.26ZM599.51 630.356C596.291 620.319 594.992 610.468 595.464 601.753L617.846 616.098C617.725 619.148 618.155 622.54 619.177 626.01L599.51 630.356ZM644.613 621.664C645.905 625.58 646.444 629.433 646.288 632.848L668.637 647.172C669.246 638.121 667.918 627.79 664.482 617.274L644.613 621.664ZM668.525 648.58L646.181 634.259C645.747 638.33 644.259 641.648 641.83 643.499L657.229 673.278C663.664 668.374 667.534 659.475 668.525 648.58ZM595.557 600.334L617.944 614.682C618.291 611.209 619.399 608.274 621.199 606.313L605.525 576.001C599.778 581.214 596.366 589.895 595.557 600.334Z" fill="#4C4C4C"/>
</g>
<path fill-rule="evenodd" clip-rule="evenodd" d="M599.608 540.237L645.015 521.614L645.023 521.634C645.31 521.51 645.599 521.391 645.891 521.276C672.92 510.579 709.5 539.223 727.595 585.252C745.69 631.282 738.447 677.268 711.417 687.964C711.083 688.096 710.748 688.222 710.411 688.343L666.525 706.369L645.095 653.166C639.195 644.58 633.948 634.76 629.713 623.987C625.807 614.052 623.082 604.119 621.481 594.542L599.608 540.237Z" fill="black"/>
<path d="M584.187 642.34C602.268 688.334 638.837 716.948 665.867 706.252C692.896 695.556 700.15 649.6 682.069 603.606C663.988 557.613 626.391 526.52 599.362 537.216C572.332 547.912 566.106 596.347 584.187 642.34Z" fill="black"/>
<g filter="url(#filter3_i_3_485)">
<ellipse rx="37.0157" ry="64.6943" transform="matrix(-0.925829 0.378121 0.352729 0.935706 632.553 624.081)" fill="url(#paint1_linear_3_485)"/>
</g>
<g filter="url(#filter4_di_3_485)">
<path fill-rule="evenodd" clip-rule="evenodd" d="M607.217 634.506C616.503 659.033 635.209 674.363 649.171 668.949L640.421 646.227C633.702 648.535 624.881 641.328 620.307 629.781L607.217 634.506ZM605.97 630.979C598.389 607.939 602.108 585.697 614.767 579.612L623.514 602.325C617.726 605.389 615.919 615.519 619.086 626.244L605.97 630.979ZM644.285 617.147C640.182 607.626 633.19 601.334 627.154 601.407L618.294 578.4C631.707 575.488 648.53 589.903 657.424 612.404L644.285 617.147ZM645.61 620.646L658.722 615.913C666.346 637.991 663.578 659.577 652.488 667.194L643.624 644.176C647.897 639.822 648.805 630.382 645.61 620.646Z" fill="#474747"/>
</g>
<path fill-rule="evenodd" clip-rule="evenodd" d="M272.928 358.014L312.578 349.646L312.581 349.664C312.838 349.605 313.096 349.549 313.355 349.498C336.899 344.833 362.359 373.547 370.22 413.633C378.081 453.719 365.367 489.997 341.823 494.662C341.536 494.719 341.249 494.771 340.961 494.818L302.607 502.934L293.087 456.449C289.585 448.614 286.792 439.88 284.958 430.527C283.267 421.902 282.528 413.454 282.644 405.458L272.928 358.014Z" fill="black"/>
<ellipse rx="43.4874" ry="73.8594" transform="matrix(-0.980301 0.19423 0.19257 0.981936 288.24 430.424)" fill="black"/>
<g filter="url(#filter5_i_3_485)">
<ellipse rx="32.617" ry="55.3971" transform="matrix(-0.980301 0.19423 0.19257 0.981936 287.03 430.175)" fill="url(#paint2_linear_3_485)"/>
</g>
<g filter="url(#filter6_di_3_485)">
<path fill-rule="evenodd" clip-rule="evenodd" d="M296.378 391.315C300.631 395.137 304.497 400.445 307.596 406.812L294.619 420.789C293.53 418.696 292.225 416.926 290.8 415.586L296.378 391.315ZM283.813 445.985C285.884 447.661 288.16 448.435 290.366 447.997C290.609 447.949 290.847 447.887 291.081 447.812L299.182 474.349C298.12 474.808 297.014 475.156 295.867 475.383C289.962 476.553 283.864 474.357 278.366 469.687L283.813 445.985ZM277.489 468.917L282.937 445.211C281.377 443.712 279.965 441.695 278.83 439.306L266.136 452.978C269.247 459.528 273.164 464.991 277.489 468.917ZM289.92 414.827L295.5 390.551C290.037 385.963 283.992 383.813 278.137 384.973C276.5 385.298 274.946 385.867 273.486 386.657L281.697 413.553C282.259 413.251 282.856 413.033 283.485 412.909C285.65 412.48 287.881 413.217 289.92 414.827ZM260.43 435.443C261.603 441.421 263.404 446.993 265.668 451.971L278.372 438.288C277.622 436.518 277.02 434.57 276.613 432.496C276.506 431.951 276.415 431.409 276.339 430.871L259.756 431.472C259.945 432.787 260.169 434.112 260.43 435.443ZM295.105 421.776L308.072 407.81C310.46 412.932 312.356 418.704 313.574 424.913C313.807 426.104 314.012 427.29 314.188 428.468L297.362 429.079C297.323 428.856 297.282 428.633 297.238 428.41C296.766 426.002 296.031 423.763 295.105 421.776ZM259.615 430.448C258.491 421.814 258.899 413.617 260.577 406.607L276.608 421.574C276.053 424.039 275.897 426.866 276.213 429.846L259.615 430.448ZM297.522 430.102C297.988 433.468 297.855 436.671 297.225 439.417L313.268 454.396C315.107 447.135 315.563 438.546 314.334 429.493L297.522 430.102ZM312.968 455.523L296.929 440.548C295.976 443.792 294.278 446.268 292.034 447.416L300.122 473.907C306.078 470.882 310.545 464.228 312.968 455.523ZM260.864 405.468L276.899 420.439C277.699 417.669 279.04 415.45 280.798 414.13L272.573 387.187C267.132 390.566 263.071 397.109 260.864 405.468Z" fill="#4C4C4C"/>
</g>
<path fill-rule="evenodd" clip-rule="evenodd" d="M272.772 359.032L312.422 350.664L312.426 350.685C312.668 350.629 312.912 350.577 313.157 350.529C336.701 345.864 362.16 374.578 370.021 414.664C377.883 454.75 365.169 491.028 341.625 495.693C341.309 495.755 340.993 495.812 340.677 495.862L302.451 503.952L292.972 457.665C289.43 449.782 286.609 440.984 284.76 431.558C283.054 422.859 282.317 414.34 282.449 406.285L272.772 359.032Z" fill="black"/>
<ellipse rx="43.9706" ry="74.6801" transform="matrix(-0.980301 0.19423 0.19257 0.981936 288.112 430.58)" fill="black"/>
<g filter="url(#filter7_i_3_485)">
<g filter="url(#filter8_i_3_485)">
<ellipse rx="30.5996" ry="53.4886" transform="matrix(-0.968058 0.248051 0.261123 0.965968 285.299 435.42)" fill="url(#paint3_linear_3_485)"/>
</g>
<g filter="url(#filter9_di_3_485)">
<path fill-rule="evenodd" clip-rule="evenodd" d="M262.343 440.225C267.169 461.321 280.776 476.372 292.898 474.078L288.319 454.454C282.538 455.281 276.151 448.23 273.71 438.311L262.343 440.225ZM261.702 437.1C258.129 417.406 263.764 399.998 274.889 396.894L279.47 416.526C274.375 418.199 271.731 426.092 273.091 435.182L261.702 437.1ZM294.945 431.503C292.659 423.199 287.605 417.092 282.607 416.292L277.97 396.417C289.38 396.008 301.594 410.107 306.32 429.587L294.945 431.503ZM295.649 434.617L307.003 432.706C310.696 451.623 305.898 468.616 295.871 473.14L291.235 453.272C295.271 450.399 297.129 442.932 295.649 434.617Z" fill="url(#paint4_linear_3_485)"/>
</g>
</g>
<g filter="url(#filter10_ii_3_485)">
<path fill-rule="evenodd" clip-rule="evenodd" d="M859.561 362.832C861.432 364.083 863.1 364.963 864.574 365.43C880.889 370.595 1015.8 452.691 1044.59 484.536C1072.6 515.525 1070.17 533.183 1069.04 541.381C1068.88 542.564 1068.75 543.551 1068.73 544.352C1068.67 548.346 1068.28 556.372 1067.78 566.583C1067.49 572.597 1067.15 579.368 1066.83 586.521L1065.74 610.822C1065.6 612.635 1065.52 614.488 1065.45 616.379C1065.12 624.412 1064.76 633.145 1059.41 642.49C1052.81 654.009 1021.55 695.929 877.323 734.187C828.427 747.157 773.18 727.813 738.128 711.403C722.473 704.754 710.934 698.506 705.931 695.7C705.215 695.298 704.771 694.594 704.695 693.785C704.471 693.657 704.264 693.538 704.074 693.43C703.716 681.088 701.55 663.358 697.977 645.619C694.016 627.218 688.553 608.979 682.208 596.914C667.134 568.253 633.924 532.246 606.162 540.449C574.656 549.759 575.028 594.471 575.144 605.149C575.178 608.289 575.447 610.394 575.712 612.474L575.712 612.474C576.094 615.459 576.468 618.39 576.132 624.253C576.119 624.483 576.075 624.701 576.006 624.904C575.967 625.431 575.921 625.991 575.868 626.586L575.059 626.121C574.329 626.602 573.343 626.693 572.478 626.2L334.087 490.386C333.416 490.004 332.956 489.332 332.872 488.564C332.262 483.03 332.571 476.542 332.918 469.252L332.918 469.25C333.818 450.365 334.973 426.093 321.088 399.04C308.396 374.312 289.042 357.45 270.56 362.347C252.079 367.243 246.238 386.642 244.752 397.526C243.292 408.215 243.428 418.091 243.507 423.818L243.507 423.819C243.539 426.124 243.561 427.757 243.466 428.501C243.137 431.092 217.916 407.336 216.617 398.659C212.664 372.251 212.699 347.69 216.591 321.241C217.252 316.752 219.483 305.181 220.899 301.294C221.025 300.948 221.093 300.592 221.084 300.223C220.859 291.073 223.084 277.374 225.883 271.713C226.128 271.218 226.369 270.696 226.621 270.148L226.625 270.139C229.589 263.705 234.216 253.657 266.973 240.748C313.487 222.418 439.685 182.634 444.536 181.79C455.999 179.795 470.488 181.528 482.218 182.93C489.1 183.753 495.033 184.462 498.846 184.238C553.928 181.006 617.14 191.438 699.092 237.508C710.103 242.777 720.956 248.711 731.423 255.399C757.533 272.081 779.384 289.526 797.497 305.496C818.735 323.285 835.011 339.153 846.691 350.54C851.876 355.595 856.156 359.767 859.561 362.832Z" fill="url(#paint5_linear_3_485)"/>
</g>
<g filter="url(#filter11_ddi_3_485)">
<path d="M635.151 447.479C604.992 433.374 589.719 390.615 544.836 339.473C544.253 338.808 544.515 337.75 545.35 337.457L739.453 269.5C739.643 269.434 739.832 269.413 740.027 269.459C742.492 270.048 761.353 275.958 814.7 327.297C840.739 352.357 845.887 358.811 859.47 368.881C861.618 370.474 861.085 373.744 852.643 380.084C825.732 400.295 679.4 468.172 635.151 447.479Z" fill="url(#paint6_linear_3_485)"/>
</g>
<g filter="url(#filter12_di_3_485)">
<path d="M427.344 277.222C387.832 262.803 382.122 263.72 351.344 262.333C332.273 261.473 300.574 258.98 296.889 267.401C293.205 275.823 328.589 304.39 343.36 313.454C350.58 317.884 600.232 457.376 592.792 441.885C583.626 422.799 539.969 367.492 525.22 345.047C500.629 307.625 466.857 291.641 427.344 277.222Z" fill="url(#paint7_linear_3_485)"/>
</g>
<g filter="url(#filter13_di_3_485)">
<path d="M337.649 247.895L508.89 187.004C508.89 187.004 505.061 188.162 484.441 186.928C477.246 186.498 299.493 250.353 298.168 251.417L337.649 247.895Z" fill="url(#paint8_linear_3_485)"/>
</g>
<g filter="url(#filter14_f_3_485)">
<path d="M708.261 543.288C645.036 510.364 610.448 471.052 573.096 434.86C687.403 474.429 926.507 560.52 922.487 565.24C917.462 571.14 899.719 577.607 841.672 578.899C784.523 580.171 715.5 547.058 708.261 543.288Z" fill="url(#paint9_linear_3_485)" fill-opacity="0.21"/>
</g>
<g filter="url(#filter15_di_3_485)">
<path d="M482.594 442.315C482.615 441.838 482.363 441.39 481.943 441.162L458.325 428.331C457.518 427.893 456.532 428.451 456.491 429.369L456.224 435.29C456.202 435.768 456.456 436.217 456.876 436.444L480.496 449.227C481.303 449.664 482.288 449.106 482.329 448.189L482.594 442.315Z" fill="#323232"/>
</g>
<g filter="url(#filter16_di_3_485)">
<path d="M361.468 382.227C361.49 381.75 361.237 381.302 360.818 381.074L337.199 368.243C336.392 367.805 335.407 368.362 335.365 369.281L335.098 375.202C335.077 375.68 335.33 376.129 335.751 376.356L359.371 389.139C360.178 389.576 361.162 389.018 361.203 388.101L361.468 382.227Z" fill="#323232"/>
</g>
<path d="M762.2 424.92L619.845 311.073C602.782 314.876 563.646 330.318 556.212 332.733C546.581 335.863 544.917 337.775 544.917 337.775C544.788 340.633 546.191 341.95 550.588 346.624C556.89 353.326 559.548 356.4 574.937 377.981C597.098 409.06 613.732 437.798 630.586 445.274C643.994 451.221 665.071 456.844 695.816 448.215C723.297 440.501 740.42 431.158 762.2 424.92Z" fill="#C4C4C4" fill-opacity="0.2"/>
<g opacity="0.17" filter="url(#filter17_f_3_485)">
<path d="M1019.39 521.631C977.855 551.549 886.594 592.879 846.447 597.999" stroke="url(#paint10_linear_3_485)" stroke-width="41.0856" stroke-linecap="round" stroke-linejoin="round"/>
</g>
<g filter="url(#filter18_dii_3_485)">
<path d="M1049.46 534.59C1057.71 524.431 1055.87 515.938 1055.34 502.626C1055.33 502.433 1055.29 502.218 1055.24 502.032C1052.08 490.946 1065.94 513.332 1066.81 528.396C1067.09 533.345 1066.66 535.825 1066 540.351C1065.69 542.422 1060.84 554.929 1061.35 557.699C1061.86 560.47 1059.62 579.303 1059.58 582.164C1059.55 585.024 1046.67 605.736 1014.41 624.818C987.611 640.67 949.734 650.159 945.878 650.537C942.022 650.916 938.846 637.895 936.097 637.059C928.902 634.873 907.045 641.801 898.928 643.456C889.456 645.388 867.358 649.831 843.612 645.686C814.241 640.56 809.872 636.998 783.381 620.986C764.925 609.831 752.696 588.737 749.084 578.346C748.509 576.691 750.046 575.31 751.689 575.919C768.824 582.278 808.987 599.46 855.259 606.322C920.153 615.946 973.044 587.29 980.622 583.17C1012.48 565.849 1029.08 559.662 1049.46 534.59Z" fill="#211F1F"/>
</g>
<mask id="mask0_3_485" style="mask-type:alpha" maskUnits="userSpaceOnUse" x="749" y="496" width="322" height="155">
<path d="M1049.5 534.465C1058.57 523.297 1056.51 508.978 1053.65 498.856C1052.96 496.422 1055.5 495.062 1056.91 497.165C1066.13 510.962 1069.36 523.058 1070 528.993C1070.28 533.942 1070.02 537.065 1069.36 541.591C1069.06 543.662 1060.9 554.796 1061.41 557.566C1061.92 560.336 1059.69 579.172 1059.66 582.032C1059.63 584.893 1046.75 605.613 1014.51 624.717C987.721 640.587 949.85 650.101 945.995 650.482C942.139 650.863 938.955 637.844 936.205 637.01C929.009 634.829 907.157 641.771 899.04 643.432C889.57 645.37 867.474 649.828 843.726 645.699C814.353 640.592 809.981 637.033 783.481 621.038C765.018 609.895 752.776 588.809 749.158 578.42C748.582 576.765 750.118 575.383 751.762 575.992C768.9 582.339 809.073 599.495 855.349 606.327C920.249 615.908 973.122 587.216 980.697 583.091C1012.54 565.749 1029.14 559.551 1049.5 534.465Z" fill="#999999"/>
</mask>
<g mask="url(#mask0_3_485)">
<g filter="url(#filter19_d_3_485)">
<path d="M795.012 586.788L884.687 592.185C884.741 592.348 884.803 592.544 884.87 592.771C885.09 593.513 885.361 594.582 885.567 595.878C885.978 598.476 886.115 601.942 885.06 605.494C884.011 609.026 881.773 612.682 877.362 615.683C872.935 618.696 866.272 621.083 856.333 621.963C850.395 622.489 842.265 622.09 833.987 620.13C825.707 618.169 817.346 614.66 810.884 609.015C807.363 605.939 803.2 600.058 799.88 594.857C798.23 592.274 796.806 589.887 795.793 588.145C795.496 587.633 795.234 587.176 795.012 586.788Z" stroke="white" stroke-opacity="0.5" stroke-width="1.8525"/>
</g>
<g filter="url(#filter20_d_3_485)">
<path d="M1034.43 534.499L1055.44 505.589C1055.65 505.954 1055.91 506.418 1056.19 506.973C1056.96 508.479 1057.9 510.642 1058.61 513.263C1060.02 518.502 1060.46 525.533 1056.67 532.82C1055.56 534.96 1053.99 536.467 1052.3 537.063C1050.66 537.643 1048.78 537.403 1046.87 535.821C1045.93 535.034 1044.51 534.629 1043.05 534.416C1041.56 534.2 1039.91 534.166 1038.38 534.213C1036.88 534.26 1035.47 534.384 1034.43 534.499Z" stroke="white" stroke-opacity="0.5" stroke-width="1.54375"/>
</g>
</g>
<g filter="url(#filter21_f_3_485)">
<path d="M582.165 532.51L334.936 401.76C348.793 431.131 344.561 463.203 343.36 476.623L558.758 599.375C560.482 561.124 572.944 535.838 582.165 532.51Z" fill="url(#paint11_linear_3_485)"/>
</g>
<defs>
<filter id="filter0_f_3_485" x="163.428" y="344.036" width="928.283" height="451.228" filterUnits="userSpaceOnUse" color-interpolation-filters="sRGB">
<feFlood flood-opacity="0" result="BackgroundImageFix"/>
<feBlend mode="normal" in="SourceGraphic" in2="BackgroundImageFix" result="shape"/>
<feGaussianBlur stdDeviation="8.67815" result="effect1_foregroundBlur_3_485"/>
</filter>
<filter id="filter1_i_3_485" x="587.927" y="559.92" width="88.3361" height="128.286" filterUnits="userSpaceOnUse" color-interpolation-filters="sRGB">
<feFlood flood-opacity="0" result="BackgroundImageFix"/>
<feBlend mode="normal" in="SourceGraphic" in2="BackgroundImageFix" result="shape"/>
<feColorMatrix in="SourceAlpha" type="matrix" values="0 0 0 0 0 0 0 0 0 0 0 0 0 0 0 0 0 0 127 0" result="hardAlpha"/>
<feMorphology radius="0.622509" operator="erode" in="SourceAlpha" result="effect1_innerShadow_3_485"/>
<feOffset/>
<feGaussianBlur stdDeviation="0.311254"/>
<feComposite in2="hardAlpha" operator="arithmetic" k2="-1" k3="1"/>
<feColorMatrix type="matrix" values="0 0 0 0 0 0 0 0 0 0 0 0 0 0 0 0 0 0 0.25 0"/>
<feBlend mode="normal" in2="shape" result="effect1_innerShadow_3_485"/>
</filter>
<filter id="filter2_di_3_485" x="593.502" y="570.63" width="75.6508" height="107.979" filterUnits="userSpaceOnUse" color-interpolation-filters="sRGB">
<feFlood flood-opacity="0" result="BackgroundImageFix"/>
<feColorMatrix in="SourceAlpha" type="matrix" values="0 0 0 0 0 0 0 0 0 0 0 0 0 0 0 0 0 0 127 0" result="hardAlpha"/>
<feOffset dy="0.249004"/>
<feGaussianBlur stdDeviation="0.186753"/>
<feColorMatrix type="matrix" values="0 0 0 0 1 0 0 0 0 1 0 0 0 0 1 0 0 0 0.41 0"/>
<feBlend mode="normal" in2="BackgroundImageFix" result="effect1_dropShadow_3_485"/>
<feBlend mode="normal" in="SourceGraphic" in2="effect1_dropShadow_3_485" result="shape"/>
<feColorMatrix in="SourceAlpha" type="matrix" values="0 0 0 0 0 0 0 0 0 0 0 0 0 0 0 0 0 0 127 0" result="hardAlpha"/>
<feOffset dx="-1.86753" dy="1.24502"/>
<feGaussianBlur stdDeviation="0.933763"/>
<feComposite in2="hardAlpha" operator="arithmetic" k2="-1" k3="1"/>
<feColorMatrix type="matrix" values="0 0 0 0 0 0 0 0 0 0 0 0 0 0 0 0 0 0 0.25 0"/>
<feBlend mode="normal" in2="shape" result="effect2_innerShadow_3_485"/>
</filter>
<filter id="filter3_i_3_485" x="591.376" y="561.935" width="82.3539" height="124.291" filterUnits="userSpaceOnUse" color-interpolation-filters="sRGB">
<feFlood flood-opacity="0" result="BackgroundImageFix"/>
<feBlend mode="normal" in="SourceGraphic" in2="BackgroundImageFix" result="shape"/>
<feColorMatrix in="SourceAlpha" type="matrix" values="0 0 0 0 0 0 0 0 0 0 0 0 0 0 0 0 0 0 127 0" result="hardAlpha"/>
<feMorphology radius="0.45706" operator="erode" in="SourceAlpha" result="effect1_innerShadow_3_485"/>
<feOffset/>
<feGaussianBlur stdDeviation="0.22853"/>
<feComposite in2="hardAlpha" operator="arithmetic" k2="-1" k3="1"/>
<feColorMatrix type="matrix" values="0 0 0 0 0 0 0 0 0 0 0 0 0 0 0 0 0 0 0.25 0"/>
<feBlend mode="normal" in2="shape" result="effect1_innerShadow_3_485"/>
</filter>
<filter id="filter4_di_3_485" x="600.194" y="577.903" width="63.205" height="93.3783" filterUnits="userSpaceOnUse" color-interpolation-filters="sRGB">
<feFlood flood-opacity="0" result="BackgroundImageFix"/>
<feColorMatrix in="SourceAlpha" type="matrix" values="0 0 0 0 0 0 0 0 0 0 0 0 0 0 0 0 0 0 127 0" result="hardAlpha"/>
<feOffset dy="0.249003"/>
<feGaussianBlur stdDeviation="0.186753"/>
<feColorMatrix type="matrix" values="0 0 0 0 1 0 0 0 0 1 0 0 0 0 1 0 0 0 0.41 0"/>
<feBlend mode="normal" in2="BackgroundImageFix" result="effect1_dropShadow_3_485"/>
<feBlend mode="normal" in="SourceGraphic" in2="effect1_dropShadow_3_485" result="shape"/>
<feColorMatrix in="SourceAlpha" type="matrix" values="0 0 0 0 0 0 0 0 0 0 0 0 0 0 0 0 0 0 127 0" result="hardAlpha"/>
<feOffset dx="-1.86753" dy="1.24502"/>
<feGaussianBlur stdDeviation="0.933763"/>
<feComposite in2="hardAlpha" operator="arithmetic" k2="-1" k3="1"/>
<feColorMatrix type="matrix" values="0 0 0 0 0 0 0 0 0 0 0 0 0 0 0 0 0 0 0.25 0"/>
<feBlend mode="normal" in2="shape" result="effect2_innerShadow_3_485"/>
</filter>
<filter id="filter5_i_3_485" x="253.314" y="375.406" width="67.4327" height="109.539" filterUnits="userSpaceOnUse" color-interpolation-filters="sRGB">
<feFlood flood-opacity="0" result="BackgroundImageFix"/>
<feBlend mode="normal" in="SourceGraphic" in2="BackgroundImageFix" result="shape"/>
<feColorMatrix in="SourceAlpha" type="matrix" values="0 0 0 0 0 0 0 0 0 0 0 0 0 0 0 0 0 0 127 0" result="hardAlpha"/>
<feMorphology radius="0.514076" operator="erode" in="SourceAlpha" result="effect1_innerShadow_3_485"/>
<feOffset/>
<feGaussianBlur stdDeviation="0.257038"/>
<feComposite in2="hardAlpha" operator="arithmetic" k2="-1" k3="1"/>
<feColorMatrix type="matrix" values="0 0 0 0 0 0 0 0 0 0 0 0 0 0 0 0 0 0 0.25 0"/>
<feBlend mode="normal" in2="shape" result="effect1_innerShadow_3_485"/>
</filter>
<filter id="filter6_di_3_485" x="257.441" y="384.561" width="57.8891" height="92.1606" filterUnits="userSpaceOnUse" color-interpolation-filters="sRGB">
<feFlood flood-opacity="0" result="BackgroundImageFix"/>
<feColorMatrix in="SourceAlpha" type="matrix" values="0 0 0 0 0 0 0 0 0 0 0 0 0 0 0 0 0 0 127 0" result="hardAlpha"/>
<feOffset dy="0.20563"/>
<feGaussianBlur stdDeviation="0.154223"/>
<feColorMatrix type="matrix" values="0 0 0 0 1 0 0 0 0 1 0 0 0 0 1 0 0 0 0.41 0"/>
<feBlend mode="normal" in2="BackgroundImageFix" result="effect1_dropShadow_3_485"/>
<feBlend mode="normal" in="SourceGraphic" in2="effect1_dropShadow_3_485" result="shape"/>
<feColorMatrix in="SourceAlpha" type="matrix" values="0 0 0 0 0 0 0 0 0 0 0 0 0 0 0 0 0 0 127 0" result="hardAlpha"/>
<feOffset dx="-1.54223" dy="1.02815"/>
<feGaussianBlur stdDeviation="0.771114"/>
<feComposite in2="hardAlpha" operator="arithmetic" k2="-1" k3="1"/>
<feColorMatrix type="matrix" values="0 0 0 0 0 0 0 0 0 0 0 0 0 0 0 0 0 0 0.25 0"/>
<feBlend mode="normal" in2="shape" result="effect2_innerShadow_3_485"/>
</filter>
<filter id="filter7_i_3_485" x="252.541" y="383.19" width="65.515" height="104.459" filterUnits="userSpaceOnUse" color-interpolation-filters="sRGB">
<feFlood flood-opacity="0" result="BackgroundImageFix"/>
<feBlend mode="normal" in="SourceGraphic" in2="BackgroundImageFix" result="shape"/>
<feColorMatrix in="SourceAlpha" type="matrix" values="0 0 0 0 0 0 0 0 0 0 0 0 0 0 0 0 0 0 127 0" result="hardAlpha"/>
<feMorphology radius="0.45706" operator="erode" in="SourceAlpha" result="effect1_innerShadow_3_485"/>
<feOffset/>
<feGaussianBlur stdDeviation="0.22853"/>
<feComposite in2="hardAlpha" operator="arithmetic" k2="-1" k3="1"/>
<feColorMatrix type="matrix" values="0 0 0 0 0 0 0 0 0 0 0 0 0 0 0 0 0 0 0.25 0"/>
<feBlend mode="normal" in2="shape" result="effect1_innerShadow_3_485"/>
</filter>
<filter id="filter8_i_3_485" x="252.541" y="383.19" width="65.515" height="104.459" filterUnits="userSpaceOnUse" color-interpolation-filters="sRGB">
<feFlood flood-opacity="0" result="BackgroundImageFix"/>
<feBlend mode="normal" in="SourceGraphic" in2="BackgroundImageFix" result="shape"/>
<feColorMatrix in="SourceAlpha" type="matrix" values="0 0 0 0 0 0 0 0 0 0 0 0 0 0 0 0 0 0 127 0" result="hardAlpha"/>
<feMorphology radius="0.462662" operator="erode" in="SourceAlpha" result="effect1_innerShadow_3_485"/>
<feOffset/>
<feGaussianBlur stdDeviation="0.231331"/>
<feComposite in2="hardAlpha" operator="arithmetic" k2="-1" k3="1"/>
<feColorMatrix type="matrix" values="0 0 0 0 0 0 0 0 0 0 0 0 0 0 0 0 0 0 0.25 0"/>
<feBlend mode="normal" in2="shape" result="effect1_innerShadow_3_485"/>
</filter>
<filter id="filter9_di_3_485" x="258.766" y="396.284" width="49.8511" height="79.2701" filterUnits="userSpaceOnUse" color-interpolation-filters="sRGB">
<feFlood flood-opacity="0" result="BackgroundImageFix"/>
<feColorMatrix in="SourceAlpha" type="matrix" values="0 0 0 0 0 0 0 0 0 0 0 0 0 0 0 0 0 0 127 0" result="hardAlpha"/>
<feOffset dy="0.249004"/>
<feGaussianBlur stdDeviation="0.186753"/>
<feColorMatrix type="matrix" values="0 0 0 0 1 0 0 0 0 1 0 0 0 0 1 0 0 0 0.41 0"/>
<feBlend mode="normal" in2="BackgroundImageFix" result="effect1_dropShadow_3_485"/>
<feBlend mode="normal" in="SourceGraphic" in2="effect1_dropShadow_3_485" result="shape"/>
<feColorMatrix in="SourceAlpha" type="matrix" values="0 0 0 0 0 0 0 0 0 0 0 0 0 0 0 0 0 0 127 0" result="hardAlpha"/>
<feOffset dx="-1.86753" dy="1.24502"/>
<feGaussianBlur stdDeviation="0.933763"/>
<feComposite in2="hardAlpha" operator="arithmetic" k2="-1" k3="1"/>
<feColorMatrix type="matrix" values="0 0 0 0 0 0 0 0 0 0 0 0 0 0 0 0 0 0 0.25 0"/>
<feBlend mode="normal" in2="shape" result="effect2_innerShadow_3_485"/>
</filter>
<filter id="filter10_ii_3_485" x="213.662" y="175.907" width="859.715" height="562.53" filterUnits="userSpaceOnUse" color-interpolation-filters="sRGB">
<feFlood flood-opacity="0" result="BackgroundImageFix"/>
<feBlend mode="normal" in="SourceGraphic" in2="BackgroundImageFix" result="shape"/>
<feColorMatrix in="SourceAlpha" type="matrix" values="0 0 0 0 0 0 0 0 0 0 0 0 0 0 0 0 0 0 127 0" result="hardAlpha"/>
<feOffset dx="3.73505" dy="-4.98007"/>
<feGaussianBlur stdDeviation="14.9402"/>
<feComposite in2="hardAlpha" operator="arithmetic" k2="-1" k3="1"/>
<feColorMatrix type="matrix" values="0 0 0 0 0 0 0 0 0 0 0 0 0 0 0 0 0 0 0.07 0"/>
<feBlend mode="normal" in2="shape" result="effect1_innerShadow_3_485"/>
<feColorMatrix in="SourceAlpha" type="matrix" values="0 0 0 0 0 0 0 0 0 0 0 0 0 0 0 0 0 0 127 0" result="hardAlpha"/>
<feOffset dy="-0.622509"/>
<feGaussianBlur stdDeviation="1.24502"/>
<feComposite in2="hardAlpha" operator="arithmetic" k2="-1" k3="1"/>
<feColorMatrix type="matrix" values="0 0 0 0 0 0 0 0 0 0 0 0 0 0 0 0 0 0 0.25 0"/>
<feBlend mode="normal" in2="effect1_innerShadow_3_485" result="effect2_innerShadow_3_485"/>
</filter>
<filter id="filter11_ddi_3_485" x="542.032" y="267.567" width="319.752" height="185.659" filterUnits="userSpaceOnUse" color-interpolation-filters="sRGB">
<feFlood flood-opacity="0" result="BackgroundImageFix"/>
<feColorMatrix in="SourceAlpha" type="matrix" values="0 0 0 0 0 0 0 0 0 0 0 0 0 0 0 0 0 0 127 0" result="hardAlpha"/>
<feOffset dx="-1.24502" dy="0.622509"/>
<feGaussianBlur stdDeviation="0.622509"/>
<feColorMatrix type="matrix" values="0 0 0 0 1 0 0 0 0 1 0 0 0 0 1 0 0 0 0.28 0"/>
<feBlend mode="normal" in2="BackgroundImageFix" result="effect1_dropShadow_3_485"/>
<feColorMatrix in="SourceAlpha" type="matrix" values="0 0 0 0 0 0 0 0 0 0 0 0 0 0 0 0 0 0 127 0" result="hardAlpha"/>
<feOffset dy="-0.622509"/>
<feGaussianBlur stdDeviation="0.622509"/>
<feColorMatrix type="matrix" values="0 0 0 0 1 0 0 0 0 1 0 0 0 0 1 0 0 0 0.56 0"/>
<feBlend mode="normal" in2="effect1_dropShadow_3_485" result="effect2_dropShadow_3_485"/>
<feBlend mode="normal" in="SourceGraphic" in2="effect2_dropShadow_3_485" result="shape"/>
<feColorMatrix in="SourceAlpha" type="matrix" values="0 0 0 0 0 0 0 0 0 0 0 0 0 0 0 0 0 0 127 0" result="hardAlpha"/>
<feOffset dx="-0.622509" dy="1.86753"/>
<feGaussianBlur stdDeviation="0.933763"/>
<feComposite in2="hardAlpha" operator="arithmetic" k2="-1" k3="1"/>
<feColorMatrix type="matrix" values="0 0 0 0 0 0 0 0 0 0 0 0 0 0 0 0 0 0 0.75 0"/>
<feBlend mode="normal" in2="shape" result="effect3_innerShadow_3_485"/>
</filter>
<filter id="filter12_di_3_485" x="294.132" y="261.315" width="299.467" height="184.261" filterUnits="userSpaceOnUse" color-interpolation-filters="sRGB">
<feFlood flood-opacity="0" result="BackgroundImageFix"/>
<feColorMatrix in="SourceAlpha" type="matrix" values="0 0 0 0 0 0 0 0 0 0 0 0 0 0 0 0 0 0 127 0" result="hardAlpha"/>
<feOffset dy="0.643755"/>
<feGaussianBlur stdDeviation="0.321877"/>
<feColorMatrix type="matrix" values="0 0 0 0 0.925374 0 0 0 0 0.925374 0 0 0 0 0.925374 0 0 0 0.37 0"/>
<feBlend mode="normal" in2="BackgroundImageFix" result="effect1_dropShadow_3_485"/>
<feBlend mode="normal" in="SourceGraphic" in2="effect1_dropShadow_3_485" result="shape"/>
<feColorMatrix in="SourceAlpha" type="matrix" values="0 0 0 0 0 0 0 0 0 0 0 0 0 0 0 0 0 0 127 0" result="hardAlpha"/>
<feOffset dx="-2.49003" dy="3.11254"/>
<feGaussianBlur stdDeviation="1.24502"/>
<feComposite in2="hardAlpha" operator="arithmetic" k2="-1" k3="1"/>
<feColorMatrix type="matrix" values="0 0 0 0 0 0 0 0 0 0 0 0 0 0 0 0 0 0 0.8 0"/>
<feBlend mode="normal" in2="shape" result="effect2_innerShadow_3_485"/>
</filter>
<filter id="filter13_di_3_485" x="295.678" y="186.926" width="213.856" height="66.9806" filterUnits="userSpaceOnUse" color-interpolation-filters="sRGB">
<feFlood flood-opacity="0" result="BackgroundImageFix"/>
<feColorMatrix in="SourceAlpha" type="matrix" values="0 0 0 0 0 0 0 0 0 0 0 0 0 0 0 0 0 0 127 0" result="hardAlpha"/>
<feOffset dy="0.643755"/>
<feGaussianBlur stdDeviation="0.321877"/>
<feColorMatrix type="matrix" values="0 0 0 0 0.925374 0 0 0 0 0.925374 0 0 0 0 0.925374 0 0 0 0.37 0"/>
<feBlend mode="normal" in2="BackgroundImageFix" result="effect1_dropShadow_3_485"/>
<feBlend mode="normal" in="SourceGraphic" in2="effect1_dropShadow_3_485" result="shape"/>
<feColorMatrix in="SourceAlpha" type="matrix" values="0 0 0 0 0 0 0 0 0 0 0 0 0 0 0 0 0 0 127 0" result="hardAlpha"/>
<feOffset dx="-2.49003" dy="3.11254"/>
<feGaussianBlur stdDeviation="1.24502"/>
<feComposite in2="hardAlpha" operator="arithmetic" k2="-1" k3="1"/>
<feColorMatrix type="matrix" values="0 0 0 0 0 0 0 0 0 0 0 0 0 0 0 0 0 0 0.8 0"/>
<feBlend mode="normal" in2="shape" result="effect2_innerShadow_3_485"/>
</filter>
<filter id="filter14_f_3_485" x="555.666" y="417.43" width="384.302" height="178.935" filterUnits="userSpaceOnUse" color-interpolation-filters="sRGB">
<feFlood flood-opacity="0" result="BackgroundImageFix"/>
<feBlend mode="normal" in="SourceGraphic" in2="BackgroundImageFix" result="shape"/>
<feGaussianBlur stdDeviation="8.71512" result="effect1_foregroundBlur_3_485"/>
</filter>
<filter id="filter15_di_3_485" x="455.914" y="427.562" width="26.9902" height="23.361" filterUnits="userSpaceOnUse" color-interpolation-filters="sRGB">
<feFlood flood-opacity="0" result="BackgroundImageFix"/>
<feColorMatrix in="SourceAlpha" type="matrix" values="0 0 0 0 0 0 0 0 0 0 0 0 0 0 0 0 0 0 127 0" result="hardAlpha"/>
<feOffset dy="-0.308751"/>
<feGaussianBlur stdDeviation="0.154375"/>
<feColorMatrix type="matrix" values="0 0 0 0 0.78755 0 0 0 0 0.78755 0 0 0 0 0.78755 0 0 0 0.19 0"/>
<feBlend mode="normal" in2="BackgroundImageFix" result="effect1_dropShadow_3_485"/>
<feBlend mode="normal" in="SourceGraphic" in2="effect1_dropShadow_3_485" result="shape"/>
<feColorMatrix in="SourceAlpha" type="matrix" values="0 0 0 0 0 0 0 0 0 0 0 0 0 0 0 0 0 0 127 0" result="hardAlpha"/>
<feOffset dy="1.54375"/>
<feGaussianBlur stdDeviation="0.771877"/>
<feComposite in2="hardAlpha" operator="arithmetic" k2="-1" k3="1"/>
<feColorMatrix type="matrix" values="0 0 0 0 0 0 0 0 0 0 0 0 0 0 0 0 0 0 0.74 0"/>
<feBlend mode="normal" in2="shape" result="effect2_innerShadow_3_485"/>
</filter>
<filter id="filter16_di_3_485" x="334.788" y="367.473" width="26.9902" height="23.361" filterUnits="userSpaceOnUse" color-interpolation-filters="sRGB">
<feFlood flood-opacity="0" result="BackgroundImageFix"/>
<feColorMatrix in="SourceAlpha" type="matrix" values="0 0 0 0 0 0 0 0 0 0 0 0 0 0 0 0 0 0 127 0" result="hardAlpha"/>
<feOffset dy="-0.308751"/>
<feGaussianBlur stdDeviation="0.154375"/>
<feColorMatrix type="matrix" values="0 0 0 0 0.78755 0 0 0 0 0.78755 0 0 0 0 0.78755 0 0 0 0.19 0"/>
<feBlend mode="normal" in2="BackgroundImageFix" result="effect1_dropShadow_3_485"/>
<feBlend mode="normal" in="SourceGraphic" in2="effect1_dropShadow_3_485" result="shape"/>
<feColorMatrix in="SourceAlpha" type="matrix" values="0 0 0 0 0 0 0 0 0 0 0 0 0 0 0 0 0 0 127 0" result="hardAlpha"/>
<feOffset dy="1.54375"/>
<feGaussianBlur stdDeviation="0.771877"/>
<feComposite in2="hardAlpha" operator="arithmetic" k2="-1" k3="1"/>
<feColorMatrix type="matrix" values="0 0 0 0 0 0 0 0 0 0 0 0 0 0 0 0 0 0 0.74 0"/>
<feBlend mode="normal" in2="shape" result="effect2_innerShadow_3_485"/>
</filter>
<filter id="filter17_f_3_485" x="819.677" y="494.861" width="226.481" height="129.908" filterUnits="userSpaceOnUse" color-interpolation-filters="sRGB">
<feFlood flood-opacity="0" result="BackgroundImageFix"/>
<feBlend mode="normal" in="SourceGraphic" in2="BackgroundImageFix" result="shape"/>
<feGaussianBlur stdDeviation="3.11254" result="effect1_foregroundBlur_3_485"/>
</filter>
<filter id="filter18_dii_3_485" x="745.469" y="496.148" width="324.921" height="158.472" filterUnits="userSpaceOnUse" color-interpolation-filters="sRGB">
<feFlood flood-opacity="0" result="BackgroundImageFix"/>
<feColorMatrix in="SourceAlpha" type="matrix" values="0 0 0 0 0 0 0 0 0 0 0 0 0 0 0 0 0 0 127 0" result="hardAlpha"/>
<feOffset dy="0.581988"/>
<feGaussianBlur stdDeviation="1.74596"/>
<feColorMatrix type="matrix" values="0 0 0 0 0 0 0 0 0 0 0 0 0 0 0 0 0 0 0.85 0"/>
<feBlend mode="normal" in2="BackgroundImageFix" result="effect1_dropShadow_3_485"/>
<feBlend mode="normal" in="SourceGraphic" in2="effect1_dropShadow_3_485" result="shape"/>
<feColorMatrix in="SourceAlpha" type="matrix" values="0 0 0 0 0 0 0 0 0 0 0 0 0 0 0 0 0 0 127 0" result="hardAlpha"/>
<feOffset dy="0.581988"/>
<feGaussianBlur stdDeviation="0.581988"/>
<feComposite in2="hardAlpha" operator="arithmetic" k2="-1" k3="1"/>
<feColorMatrix type="matrix" values="0 0 0 0 0 0 0 0 0 0 0 0 0 0 0 0 0 0 0.25 0"/>
<feBlend mode="normal" in2="shape" result="effect2_innerShadow_3_485"/>
<feColorMatrix in="SourceAlpha" type="matrix" values="0 0 0 0 0 0 0 0 0 0 0 0 0 0 0 0 0 0 127 0" result="hardAlpha"/>
<feOffset dy="-0.581988"/>
<feGaussianBlur stdDeviation="0.581988"/>
<feComposite in2="hardAlpha" operator="arithmetic" k2="-1" k3="1"/>
<feColorMatrix type="matrix" values="0 0 0 0 0 0 0 0 0 0 0 0 0 0 0 0 0 0 0.25 0"/>
<feBlend mode="normal" in2="effect2_innerShadow_3_485" result="effect3_innerShadow_3_485"/>
</filter>
<filter id="filter19_d_3_485" x="792.447" y="585.761" width="96.5126" height="40.427" filterUnits="userSpaceOnUse" color-interpolation-filters="sRGB">
<feFlood flood-opacity="0" result="BackgroundImageFix"/>
<feColorMatrix in="SourceAlpha" type="matrix" values="0 0 0 0 0 0 0 0 0 0 0 0 0 0 0 0 0 0 127 0" result="hardAlpha"/>
<feOffset dx="0.617501" dy="1.54375"/>
<feGaussianBlur stdDeviation="0.771877"/>
<feColorMatrix type="matrix" values="0 0 0 0 1 0 0 0 0 1 0 0 0 0 1 0 0 0 0.24 0"/>
<feBlend mode="normal" in2="BackgroundImageFix" result="effect1_dropShadow_3_485"/>
<feBlend mode="normal" in="SourceGraphic" in2="effect1_dropShadow_3_485" result="shape"/>
</filter>
<filter id="filter20_d_3_485" x="1032.75" y="504.207" width="29.2216" height="35.4897" filterUnits="userSpaceOnUse" color-interpolation-filters="sRGB">
<feFlood flood-opacity="0" result="BackgroundImageFix"/>
<feColorMatrix in="SourceAlpha" type="matrix" values="0 0 0 0 0 0 0 0 0 0 0 0 0 0 0 0 0 0 127 0" result="hardAlpha"/>
<feOffset dx="0.926252" dy="0.926252"/>
<feGaussianBlur stdDeviation="0.323923"/>
<feColorMatrix type="matrix" values="0 0 0 0 1 0 0 0 0 1 0 0 0 0 1 0 0 0 0.24 0"/>
<feBlend mode="normal" in2="BackgroundImageFix" result="effect1_dropShadow_3_485"/>
<feBlend mode="normal" in="SourceGraphic" in2="effect1_dropShadow_3_485" result="shape"/>
</filter>
<filter id="filter21_f_3_485" x="331.849" y="398.672" width="253.403" height="203.79" filterUnits="userSpaceOnUse" color-interpolation-filters="sRGB">
<feFlood flood-opacity="0" result="BackgroundImageFix"/>
<feBlend mode="normal" in="SourceGraphic" in2="BackgroundImageFix" result="shape"/>
<feGaussianBlur stdDeviation="1.54375" result="effect1_foregroundBlur_3_485"/>
</filter>
<linearGradient id="paint0_linear_3_485" x1="93.1577" y1="102.34" x2="97.7959" y2="33.3471" gradientUnits="userSpaceOnUse">
<stop stop-color="#3F3F3F"/>
<stop offset="1" stop-color="#5C5C5C"/>
</linearGradient>
<linearGradient id="paint1_linear_3_485" x1="87.1045" y1="89.8227" x2="60.9754" y2="-30.0843" gradientUnits="userSpaceOnUse">
<stop stop-color="#3F3F3F"/>
<stop offset="1" stop-color="#777676"/>
</linearGradient>
<linearGradient id="paint2_linear_3_485" x1="76.9365" y1="84.5071" x2="80.7659" y2="27.5363" gradientUnits="userSpaceOnUse">
<stop stop-color="#3F3F3F"/>
<stop offset="1" stop-color="#5C5C5C"/>
</linearGradient>
<linearGradient id="paint3_linear_3_485" x1="72.0062" y1="74.2645" x2="50.3999" y2="-24.872" gradientUnits="userSpaceOnUse">
<stop stop-color="#3F3F3F"/>
<stop offset="1" stop-color="#777676"/>
</linearGradient>
<linearGradient id="paint4_linear_3_485" x1="247.135" y1="441.675" x2="274.253" y2="376.718" gradientUnits="userSpaceOnUse">
<stop stop-color="#3F3F3F"/>
<stop offset="1" stop-color="#777676"/>
</linearGradient>
<linearGradient id="paint5_linear_3_485" x1="720.769" y1="709.31" x2="1006.01" y2="330.706" gradientUnits="userSpaceOnUse">
<stop stop-color="#2C2C2C"/>
<stop offset="0.628054" stop-color="#515151"/>
<stop offset="1" stop-color="#7D7D7D"/>
</linearGradient>
<linearGradient id="paint6_linear_3_485" x1="748.977" y1="106.196" x2="514.236" y2="309.091" gradientUnits="userSpaceOnUse">
<stop stop-color="#E8EAE9"/>
<stop offset="0.498386" stop-color="#707072"/>
<stop offset="1" stop-color="#2F3032"/>
</linearGradient>
<linearGradient id="paint7_linear_3_485" x1="347.105" y1="803.061" x2="579.886" y2="419.652" gradientUnits="userSpaceOnUse">
<stop stop-color="#E8EAE9"/>
<stop offset="0.498386" stop-color="#707072"/>
<stop offset="1" stop-color="#2F3032"/>
</linearGradient>
<linearGradient id="paint8_linear_3_485" x1="273.675" y1="392.698" x2="401.508" y2="222.575" gradientUnits="userSpaceOnUse">
<stop stop-color="#E8EAE9"/>
<stop offset="0.498386" stop-color="#707072"/>
<stop offset="1" stop-color="#2F3032"/>
</linearGradient>
<linearGradient id="paint9_linear_3_485" x1="732.378" y1="581.975" x2="763.998" y2="501.556" gradientUnits="userSpaceOnUse">
<stop stop-color="#ECEAEA"/>
<stop offset="1" stop-color="white" stop-opacity="0"/>
</linearGradient>
<linearGradient id="paint10_linear_3_485" x1="933.661" y1="601.038" x2="916.476" y2="563.552" gradientUnits="userSpaceOnUse">
<stop stop-color="#4B4B4B"/>
<stop offset="0.899322" stop-opacity="0"/>
</linearGradient>
<linearGradient id="paint11_linear_3_485" x1="510.143" y1="454.697" x2="433.894" y2="595.154" gradientUnits="userSpaceOnUse">
<stop stop-color="#343434" stop-opacity="0.66"/>
<stop offset="1" stop-color="#1A1A1A"/>
</linearGradient>
</defs>
</svg>
