<svg width="64" height="64" viewBox="0 0 64 64" fill="none" xmlns="http://www.w3.org/2000/svg">
<path d="M50.4533 16.0267C49.92 14.4534 48.4267 13.3334 46.6667 13.3334H17.3333C15.5733 13.3334 14.1067 14.4534 13.5467 16.0267L8 32V53.3334C8 54.8 9.2 56 10.6667 56H13.3333C14.8 56 16 54.8 16 53.3334V50.6667H48V53.3334C48 54.8 49.2 56 50.6667 56H53.3333C54.8 56 56 54.8 56 53.3334V32L50.4533 16.0267ZM18.2667 18.6667H45.7067L48.5867 26.96H15.3867L18.2667 18.6667ZM50.6667 45.3334H13.3333V32H50.6667V45.3334Z" fill="black"/>
<path d="M20 42.6666C22.2091 42.6666 24 40.8758 24 38.6666C24 36.4575 22.2091 34.6666 20 34.6666C17.7909 34.6666 16 36.4575 16 38.6666C16 40.8758 17.7909 42.6666 20 42.6666Z" fill="black"/>
<path d="M44 42.6666C46.2091 42.6666 48 40.8758 48 38.6666C48 36.4575 46.2091 34.6666 44 34.6666C41.7909 34.6666 40 36.4575 40 38.6666C40 40.8758 41.7909 42.6666 44 42.6666Z" fill="black"/>
</svg>
